<svg width="20" height="20" viewBox="0 0 20 20" fill="none" xmlns="http://www.w3.org/2000/svg">
<g id="icons / bx-check-circle">
<path id="Vector" d="M10.0003 1.66667C5.40533 1.66667 1.66699 5.405 1.66699 10C1.66699 14.595 5.40533 18.3333 10.0003 18.3333C14.5953 18.3333 18.3337 14.595 18.3337 10C18.3337 5.405 14.5953 1.66667 10.0003 1.66667ZM10.0003 16.6667C6.32449 16.6667 3.33366 13.6758 3.33366 10C3.33366 6.32417 6.32449 3.33333 10.0003 3.33333C13.6762 3.33333 16.667 6.32417 16.667 10C16.667 13.6758 13.6762 16.6667 10.0003 16.6667Z" fill="#6366F1"/>
<path id="Vector_2" d="M8.33273 11.3225L6.4169 9.41L5.24023 10.59L8.3344 13.6775L13.9227 8.08917L12.7444 6.91084L8.33273 11.3225Z" fill="#6366F1"/>
</g>
</svg>
